<svg width="100" height="55" viewBox="0 0 100 55" fill="none" xmlns="http://www.w3.org/2000/svg">
<path d="M23.9226 35.786C26.0106 35.3536 27.7144 34.8651 29.0341 34.3203L29.4443 34.1436C29.9966 34.0534 30.3034 34.1954 30.3645 34.5696C30.4081 34.8369 30.3386 35.644 30.1561 36.9909C29.9706 38.32 29.7737 39.0748 29.5654 39.2551C29.3748 39.4326 28.8325 39.6401 27.9383 39.8775C27.0441 40.115 25.5457 40.4053 23.4431 40.7486L22.8644 46.1116C22.7109 47.6367 22.5393 48.8264 22.3495 49.6806C22.1596 50.5348 21.8787 51.1111 21.5067 51.4097C21.1347 51.7082 20.3574 52.0455 19.1749 52.4215C18.0101 52.7946 16.7328 53.0946 15.343 53.3216C14.5055 53.4583 14.0504 53.3039 13.9777 52.8585C13.9166 52.4843 13.9555 51.9383 14.0944 51.2204L15.8972 41.9257L6.40994 43.1454C5.54884 43.2494 5.00556 43.2832 4.7801 43.2469C4.57246 43.2076 4.44391 43.0365 4.39446 42.7336C4.20827 41.5932 4.23972 40.6094 4.48882 39.7821C5.05028 37.8428 5.9841 35.4951 7.2903 32.7391C9.20014 28.7503 11.5387 24.8104 14.306 20.9194C17.0911 17.0256 19.1666 14.5555 20.5325 13.5093C21.3776 12.8591 22.6108 12.4017 24.2323 12.1369C25.248 11.9711 25.7994 12.1555 25.8867 12.69C25.9245 12.9217 25.8127 14.8699 25.5513 18.5347L25.3124 22.1134C25.1724 24.0571 24.8086 27.7112 24.2209 33.0756L23.9226 35.786ZM19.0117 18.3127C17.4782 19.7887 15.458 22.5973 12.9511 26.7384C10.4591 30.8589 8.4225 35.0238 6.8414 39.2334C11.0018 38.609 14.2122 38.0482 16.4726 37.5511C17.2628 32.8671 18.1092 26.4542 19.0117 18.3127Z" fill="#006B87"/>
<path d="M98.5797 33.0363C95.2269 38.0473 92.0983 40.7899 89.1939 41.2641C87.6794 41.5114 86.1508 41.0567 84.6082 39.8999C83.0656 38.7432 82.0831 36.5346 81.6605 33.2742C79.5198 39.7703 76.4626 43.3427 72.4891 43.9915C70.5647 44.3056 68.8938 43.8193 67.4763 42.5324C66.0767 41.2425 65.1732 39.3503 64.7659 36.8557C64.3266 34.1651 64.6877 29.542 65.8492 22.9862C66.8175 17.3767 67.1592 13.6988 66.8741 11.9526C66.6704 10.7053 66.2135 9.7555 65.5033 9.10313C64.808 8.43003 63.9971 8.16912 63.0706 8.3204C61.6629 8.55022 60.4365 9.61024 59.3914 11.5005C58.3434 13.3728 57.9678 15.2178 58.2645 17.0353C58.5263 18.6389 59.3429 19.8868 60.7142 20.7788C61.2236 21.098 61.5002 21.3913 61.5438 21.6586C61.6398 22.2466 61.3656 23.0323 60.7213 24.0155C60.0769 24.9988 59.4429 25.5414 58.8192 25.6432C58.0887 25.7625 57.308 25.3503 56.477 24.4066C55.6461 23.463 55.1288 22.3675 54.9252 21.1202C54.3695 17.7169 55.0899 14.398 57.0863 11.1634C59.0798 7.91094 61.5287 6.04764 64.4331 5.57344C66.7139 5.20107 68.7125 5.78944 70.4288 7.33855C72.1423 8.86984 73.2333 11.0699 73.7016 13.9386C74.2515 17.3063 73.9566 22.1108 72.8169 28.352C72.022 32.6709 71.7409 35.5431 71.9737 36.9686C72.1249 37.8952 72.4491 38.5923 72.9462 39.0599C73.4582 39.5068 74.0795 39.6707 74.8101 39.5514C76.1821 39.3274 77.3405 38.187 78.2852 36.1302C79.2299 34.0735 79.9018 31.9698 80.3007 29.8192C80.7174 27.6657 81.1329 24.5521 81.547 20.4782L82.5152 11.7862C82.7959 9.47201 83.0619 7.5718 83.3132 6.08559C83.5616 4.58157 83.7336 3.73029 83.8292 3.53174C83.9398 3.31246 84.1407 3.14246 84.432 3.02173C84.7411 2.89809 85.3234 2.71154 86.1791 2.46208L89.9313 1.41042C90.4837 1.32024 90.7446 1.40569 90.714 1.66679L90.1997 6.41559C89.7073 10.7949 89.2613 15.9625 88.8617 21.9182C88.4799 27.871 88.417 31.6314 88.673 33.1994C88.865 34.3755 89.2419 35.2835 89.8037 35.9235C90.3627 36.5457 91.0163 36.7957 91.7647 36.6735C92.6021 36.5368 93.4512 36.0231 94.312 35.1326C95.1727 34.242 96.428 32.5187 98.0778 29.9626L98.5797 33.0363Z" fill="#006B87"/>
</svg>
