<svg width="263" height="92" viewBox="0 0 263 92" fill="none" xmlns="http://www.w3.org/2000/svg">
<path fill-rule="evenodd" clip-rule="evenodd" d="M178.636 71.35C177.827 71.9238 177.055 72.4248 176.319 72.8531C173.995 74.1976 171.773 74.8698 169.654 74.8698C167.216 74.8698 165.245 73.9241 163.741 72.0328C163.629 71.8892 163.521 71.7419 163.417 71.5908C162.615 72.0677 161.812 72.4885 161.009 72.8531C158.047 74.1976 154.697 74.8698 150.96 74.8698C146.015 74.8698 142.05 73.6735 139.065 71.2809C136.103 68.8883 134.622 65.7438 134.622 61.8473C134.622 58.4521 135.841 55.4785 138.279 52.9264C140.717 50.3515 144.454 48.5628 149.49 47.5602C144.637 45.7145 142.21 42.6041 142.21 38.2291C142.21 34.7428 143.885 31.735 147.234 29.2057C150.584 26.6536 154.617 25.3776 159.334 25.3776C162.729 25.3776 165.19 26.0498 166.717 27.3942C168.243 28.7158 169.007 29.9235 169.007 31.0172C169.007 31.7008 168.437 32.7604 167.298 34.1959C166.159 35.6315 165.327 36.3492 164.803 36.3492C164.188 36.3492 163.743 35.4834 163.47 33.7516C162.832 29.8779 161.271 27.941 158.787 27.941C156.85 27.941 155.096 29.0234 153.523 31.1881C151.951 33.3528 151.165 35.8024 151.165 38.5367C151.165 42.9117 153.307 45.0992 157.591 45.0992C158.297 45.0992 158.776 45.1448 159.026 45.236C159.277 45.3043 159.402 45.498 159.402 45.817C159.402 46.6829 159.231 47.6399 158.89 48.6881C158.548 49.7135 158.115 50.2262 157.591 50.2262C157.431 50.2262 156.862 50.1692 155.882 50.0553C154.902 49.9186 154.048 49.8502 153.318 49.8502C150.903 49.8502 148.829 50.8414 147.098 52.8239C145.366 54.8063 144.5 57.1989 144.5 60.0016C144.5 63.0322 145.514 65.5501 147.542 67.5553C149.57 69.5377 152.133 70.5289 155.232 70.5289C157.529 70.5289 159.826 69.9753 162.123 68.868C161.721 67.5585 161.52 66.0728 161.52 64.4108C161.52 59.6256 162.556 53.8834 164.63 47.1842C166.703 40.485 169.221 34.3099 172.184 28.6588L180.865 25.4459C181.139 25.3548 181.344 25.3092 181.48 25.3092C182.141 25.3092 182.677 25.7991 183.087 26.7789C183.52 27.736 183.736 29.0348 183.736 30.6754C183.736 35.3239 182.665 39.8242 180.523 44.1764C178.382 48.5286 175.032 53.177 170.475 58.1217C170.292 60.4915 170.201 62.1207 170.201 63.0094C170.201 64.9918 170.566 66.5641 171.295 67.7262C172.024 68.8883 172.993 69.4694 174.2 69.4694C175.121 69.4694 176.085 69.2208 177.095 68.7237C176.554 67.3514 176.283 65.7998 176.283 64.069C176.283 59.2382 177.958 54.8746 181.308 50.9781C184.657 47.0589 188.371 45.0992 192.45 45.0992C194.569 45.0992 196.267 45.6461 197.543 46.7399C197.833 46.9883 198.09 47.2543 198.314 47.538C198.419 47.2634 198.526 46.986 198.635 46.7057L207.658 45.0309L205.129 52.653C203.432 57.8882 202.407 61.8362 202.055 64.4971V66.5299L201.924 66.6584C201.973 67.6927 202.255 68.55 202.771 69.2301C203.34 69.9821 204.058 70.358 204.924 70.358C206.747 70.358 208.57 68.9453 210.393 66.1198C210.393 62.5423 211.042 58.8281 212.341 54.9772L215.144 46.7057L224.304 45.0309L220.476 56.8571C219.245 60.6624 218.63 63.6702 218.63 65.8805C218.63 67.2249 218.926 68.2959 219.519 69.0934C220.111 69.8909 220.897 70.2897 221.877 70.2897C223.085 70.2897 224.224 69.8453 225.295 68.9567C226.366 68.068 227.574 66.7236 228.918 64.9235C227.71 62.7132 227.106 60.4231 227.106 58.0533C227.106 54.6354 227.961 51.6162 229.67 48.9957C231.379 46.3525 233.304 45.0309 235.446 45.0309C236.927 45.0309 237.668 46.1474 237.668 48.3805C237.668 49.5903 237.55 50.8404 237.315 52.131C237.61 51.7423 237.921 51.358 238.247 50.9781C241.597 47.0589 245.311 45.0992 249.39 45.0992C251.509 45.0992 253.206 45.6461 254.482 46.7399C255.758 47.8336 256.396 49.2692 256.396 51.0465C256.396 55.7633 251.383 59.5914 241.357 62.5309C241.368 62.5803 241.378 62.6295 241.388 62.6783L241.462 62.5992V63.0036C242.443 67.1318 244.789 69.1959 248.501 69.1959C250.005 69.1959 251.44 68.7972 252.808 67.9996C254.175 67.1793 256.237 65.3792 258.994 62.5992V66.5299C256.1 69.3782 253.503 71.486 251.201 72.8531C248.9 74.1976 246.359 74.8698 243.579 74.8698C240.48 74.8698 237.974 73.8785 236.06 71.8961C235.216 71.0121 234.561 70.0035 234.094 68.8703C232.968 68.5953 231.858 68.0203 230.764 67.1451C226.617 72.2949 222.344 74.8698 217.946 74.8698C214.711 74.8698 212.398 73.0924 211.008 69.5377C207.954 73.0924 204.662 74.8698 201.13 74.8698C198.828 74.8698 197.017 74.1178 195.695 72.6139C195.572 72.4713 195.454 72.3238 195.342 72.1713C194.975 72.416 194.615 72.6433 194.262 72.8531C191.96 74.1976 189.42 74.8698 186.64 74.8698C183.541 74.8698 181.034 73.8785 179.12 71.8961C178.951 71.7191 178.79 71.537 178.636 71.35ZM233.302 65.6364C233.249 65.1314 233.223 64.6089 233.223 64.069C233.223 63.6122 233.238 63.1595 233.268 62.7111C232.9 63.3723 232.51 64.0414 232.097 64.7184C232.49 65.0883 232.892 65.3943 233.302 65.6364ZM184.418 62.5309C188.845 61.2328 192.295 59.7615 194.768 58.1169C194.064 60.893 193.713 63.629 193.713 66.3248C193.713 67.231 193.789 68.0714 193.942 68.8459C193.168 69.0793 192.375 69.1959 191.562 69.1959C187.806 69.1959 185.448 67.0828 184.488 62.8564V62.5992L184.442 62.645L184.43 62.5878L184.418 62.5309ZM171.397 53.1656C174.291 49.9528 176.638 46.3525 178.438 42.3649C180.239 38.3772 181.139 34.9479 181.139 32.0768C181.139 31.2337 181.013 30.5615 180.763 30.0602C180.512 29.5361 180.193 29.274 179.806 29.274C178.963 29.274 177.732 31.3704 176.114 35.5631C174.519 39.7558 172.947 45.6233 171.397 53.1656ZM192.895 51.1149C192.895 55.5354 189.978 58.566 184.145 60.2067C184.145 56.538 184.828 53.5644 186.195 51.2858C187.562 48.9843 188.998 47.8336 190.502 47.8336C192.097 47.8336 192.895 48.9274 192.895 51.1149ZM249.834 51.1149C249.834 55.5354 246.917 58.566 241.084 60.2067C241.084 56.538 241.768 53.5644 243.135 51.2858C244.502 48.9843 245.938 47.8336 247.441 47.8336C249.036 47.8336 249.834 48.9274 249.834 51.1149Z" fill="url(#paint0_linear)"/>
<path d="M13.2275 41.7496C15.5745 36.1442 19.3343 30.8691 24.5068 25.9244V25.3776C21.18 25.3776 18.6507 25.8561 16.9189 26.8131C15.1872 27.7474 12.8516 30.0602 9.91211 33.7516C6.97266 37.4202 4.58008 41.6015 2.73438 46.2955C0.911458 50.9895 0 55.6266 0 60.2067C0 64.5133 1.04818 68.0338 3.14453 70.7682C5.26367 73.5026 7.94108 74.8698 11.1768 74.8698C15.3467 74.8698 19.79 72.819 24.5068 68.7174C29.2236 64.5931 33.1543 59.3294 36.2988 52.9264C39.4434 46.5234 41.0156 40.485 41.0156 34.8112C41.0156 31.8717 40.4004 29.5703 39.1699 27.9069C37.9395 26.2207 36.2646 25.3776 34.1455 25.3776C31.0465 25.3776 28.0046 27.2233 25.0195 30.9147C22.0573 34.6061 20.5762 38.4228 20.5762 42.3649C20.5762 44.2334 21.0319 45.7942 21.9434 47.0475C22.8776 48.278 24.0283 48.8932 25.3955 48.8932C26.512 48.8932 27.583 48.4147 28.6084 47.4576C29.6338 46.4778 30.1465 45.4866 30.1465 44.484C30.1465 43.9371 29.8275 43.6295 29.1895 43.5612C27.64 43.3561 26.8652 42.4218 26.8652 40.7584C26.8652 38.4342 27.7083 35.7796 29.3945 32.7946C31.1035 29.8095 32.9492 28.317 34.9316 28.317C36.0026 28.317 36.8571 28.9095 37.4951 30.0944C38.1559 31.2793 38.4863 32.8743 38.4863 34.8795C38.4863 41.6243 36.0368 48.9502 31.1377 56.8571C26.2614 64.7412 21.5674 68.6832 17.0557 68.6832C14.7998 68.6832 13.0111 67.7262 11.6895 65.8121C10.3678 63.8753 9.70703 61.2435 9.70703 57.9166C9.70703 52.7213 10.8805 47.3323 13.2275 41.7496Z" fill="url(#paint1_linear)"/>
<path d="M60.8379 65.3336C60.8379 67.3736 61.4993 68.4421 62.8221 68.5392C62.8196 68.3744 62.8184 68.2173 62.8184 68.068C62.8184 64.3994 63.2399 60.9244 64.083 57.6432C64.9489 54.3619 66.3275 50.6705 68.2188 46.569L76.5586 44.9625C74.804 49.6793 73.6533 53.3935 73.1064 56.1051C76.8434 51.9352 79.8057 49.0527 81.9932 47.4576C84.2035 45.8398 86.1631 45.0309 87.8721 45.0309C89.0342 45.0309 90.0026 45.4752 90.7773 46.3639C91.5521 47.2298 91.9395 48.3235 91.9395 49.6451C91.9395 51.8326 90.9596 55.4329 89 60.4459C87.6556 63.8867 86.9834 66.1198 86.9834 67.1451C86.9834 68.5123 87.5417 69.1959 88.6582 69.1959C90.3216 69.1959 93.0104 66.997 96.7246 62.5992V66.5299C91.4609 72.0898 86.9492 74.8698 83.1895 74.8698C81.6628 74.8698 80.4323 74.3343 79.498 73.2633C78.5638 72.1923 78.0967 70.7568 78.0967 68.9567C78.0967 66.5185 79.0993 62.7929 81.1045 57.7799C82.1755 55.0911 82.7109 53.3821 82.7109 52.653C82.7109 51.9238 82.4261 51.5592 81.8564 51.5592C81.5374 51.5592 81.1159 51.7187 80.5918 52.0377C80.1133 52.3567 79.555 52.8011 78.917 53.3707C78.3473 53.8948 77.7093 54.5328 77.0029 55.2848C76.3877 55.9228 75.7269 56.652 75.0205 57.4723L73.1064 59.694C72.2633 60.7194 71.7393 61.8017 71.5342 62.941C71.3889 63.7641 71.2643 64.5584 71.1602 65.3239V66.5299L70.9931 66.6878C70.9342 67.2322 70.8867 67.7606 70.8506 68.2731C70.7822 69.4808 70.748 71.11 70.748 73.1608L63.1943 74.9381C63.1447 74.3286 63.0999 73.7499 63.0601 73.2021C61.2497 74.3139 59.6089 74.8698 58.1377 74.8698C56.3376 74.8698 54.9476 74.152 53.9678 72.7164C53.0107 71.2809 52.5322 69.3326 52.5322 66.8717C50.0257 69.6289 47.7812 71.6683 45.7988 72.9899C43.8164 74.2887 41.8796 74.9381 39.9883 74.9381C38.2565 74.9381 36.8665 74.2203 35.8184 72.7848C34.7702 71.3492 34.2461 69.401 34.2461 66.9401C34.2461 62.2005 35.8411 55.524 39.0312 46.9108L48.123 45.0992C44.3861 56.014 42.5176 63.0208 42.5176 66.1198C42.5176 68.3073 43.3379 69.401 44.9785 69.401C46.1634 69.401 47.6331 68.444 49.3877 66.5299C51.1423 64.5931 52.236 62.9069 52.6689 61.4713L57.1465 46.9108L66.4434 45.0309C64.3014 51.8896 62.8317 56.7089 62.0342 59.4889C61.2367 62.2688 60.8379 64.2171 60.8379 65.3336Z" fill="url(#paint2_linear)"/>
<path d="M106.601 40.0065C110.793 40.0065 113.106 37.2265 113.539 31.6666C112.195 32.6464 110.839 33.1364 109.472 33.1364C108.264 33.1364 106.749 32.5781 104.926 31.4615C104.561 33.3073 103.388 35.4948 101.405 38.024C102.909 39.3457 104.641 40.0065 106.601 40.0065Z" fill="url(#paint3_linear)"/>
<path fill-rule="evenodd" clip-rule="evenodd" d="M106.327 72.3405C107.014 71.9699 107.677 71.5886 108.315 71.1966C108.506 71.4379 108.708 71.671 108.923 71.8961C110.837 73.8785 113.343 74.8698 116.442 74.8698C119.222 74.8698 121.763 74.1976 124.064 72.8531C126.366 71.486 128.964 69.3782 131.857 66.5299V62.5992C129.1 65.3792 127.038 67.1793 125.671 67.9996C124.304 68.7972 122.868 69.1959 121.364 69.1959C117.513 69.1959 115.132 66.9742 114.221 62.5309C124.247 59.5914 129.26 55.7633 129.26 51.0465C129.26 49.2692 128.622 47.8336 127.346 46.7399C126.07 45.6461 124.372 45.0992 122.253 45.0992C118.174 45.0992 114.46 47.0589 111.11 50.9781C110.258 51.9701 109.513 52.9923 108.878 54.0447C109.41 50.5042 109.904 47.4996 110.36 45.0309C107.398 45.6461 104.721 46.0905 102.328 46.3639L100.209 49.0983C95.082 55.7747 91.0033 60.5599 87.9727 63.4537V66.5299H88.7588C91.8122 63.5905 95.7087 59.1585 100.448 53.234L97.9189 73.8102C91.9033 76.8636 88.8955 80.6233 88.8955 85.0895C88.8955 86.9352 89.431 88.4847 90.502 89.7379C91.5729 91.014 92.8717 91.652 94.3984 91.652C96.8366 91.652 99.2178 89.9886 101.542 86.6617C103.889 83.3349 105.484 78.5612 106.327 72.3405ZM106.995 68.962C106.932 68.9954 106.869 69.0278 106.806 69.0592L106.861 68.6296C106.904 68.7416 106.949 68.8524 106.995 68.962ZM93.168 80.5436C94.2845 79.0397 95.7998 77.8434 97.7139 76.9547L96.9961 82.902C96.5176 86.9124 95.4922 88.9176 93.9199 88.9176C93.2819 88.9176 92.7236 88.553 92.2451 87.8239C91.7666 87.1175 91.5273 86.2516 91.5273 85.2262C91.5273 83.6311 92.0742 82.0703 93.168 80.5436ZM113.947 60.2067C119.781 58.566 122.697 55.5354 122.697 51.1149C122.697 48.9274 121.9 47.8336 120.305 47.8336C118.801 47.8336 117.365 48.9843 115.998 51.2858C114.631 53.5644 113.947 56.538 113.947 60.2067Z" fill="url(#paint4_linear)"/>
<path d="M121.921 76.4718L122.421 76.0306L122.893 78.0343L122.831 79.5819L122.053 81.6693L120.715 83.117L120.7 83.1305C120.318 83.4665 119.974 83.7041 119.576 83.8605C119.18 84.0163 118.762 84.0795 118.253 84.1103C117.76 84.14 117.265 84.1664 116.894 84.1853C116.708 84.1948 116.553 84.2025 116.444 84.2077L116.273 84.2159L116.207 84.2189L114.011 83.6262L113.855 83.2831L113.814 83.108C114.591 82.0067 115.055 81.2097 115.289 80.4905C115.518 79.7846 115.532 79.1332 115.364 78.3154L115.405 78.0033L115.864 77.8953C117.254 78.2418 118.237 78.3285 119.121 78.1263C120.001 77.9248 120.843 77.4225 121.921 76.4718Z" fill="url(#paint5_linear)"/>
<path fill-rule="evenodd" clip-rule="evenodd" d="M178.636 71.35C177.827 71.9238 177.055 72.4248 176.319 72.8531C173.995 74.1976 171.773 74.8698 169.654 74.8698C167.216 74.8698 165.245 73.9241 163.741 72.0328C163.629 71.8892 163.521 71.7419 163.417 71.5908C162.615 72.0677 161.812 72.4885 161.009 72.8531C158.047 74.1976 154.697 74.8698 150.96 74.8698C146.015 74.8698 142.05 73.6735 139.065 71.2809C136.103 68.8883 134.622 65.7438 134.622 61.8473C134.622 58.4521 135.841 55.4785 138.279 52.9264C140.717 50.3515 144.454 48.5628 149.49 47.5602C144.637 45.7145 142.21 42.6041 142.21 38.2291C142.21 34.7428 143.885 31.735 147.234 29.2057C150.584 26.6536 154.617 25.3776 159.334 25.3776C162.729 25.3776 165.19 26.0498 166.717 27.3942C168.243 28.7158 169.007 29.9235 169.007 31.0172C169.007 31.7008 168.437 32.7604 167.298 34.1959C166.159 35.6315 165.327 36.3492 164.803 36.3492C164.188 36.3492 163.743 35.4834 163.47 33.7516C162.832 29.8779 161.271 27.941 158.787 27.941C156.85 27.941 155.096 29.0234 153.523 31.1881C151.951 33.3528 151.165 35.8024 151.165 38.5367C151.165 42.9117 153.307 45.0992 157.591 45.0992C158.297 45.0992 158.776 45.1448 159.026 45.236C159.277 45.3043 159.402 45.498 159.402 45.817C159.402 46.6829 159.231 47.6399 158.89 48.6881C158.548 49.7135 158.115 50.2262 157.591 50.2262C157.431 50.2262 156.862 50.1692 155.882 50.0553C154.902 49.9186 154.048 49.8502 153.318 49.8502C150.903 49.8502 148.829 50.8414 147.098 52.8239C145.366 54.8063 144.5 57.1989 144.5 60.0016C144.5 63.0322 145.514 65.5501 147.542 67.5553C149.57 69.5377 152.133 70.5289 155.232 70.5289C157.529 70.5289 159.826 69.9753 162.123 68.868C161.721 67.5585 161.52 66.0728 161.52 64.4108C161.52 59.6256 162.556 53.8834 164.63 47.1842C166.703 40.485 169.221 34.3099 172.184 28.6588L180.865 25.4459C181.139 25.3548 181.344 25.3092 181.48 25.3092C182.141 25.3092 182.677 25.7991 183.087 26.7789C183.52 27.736 183.736 29.0348 183.736 30.6754C183.736 35.3239 182.665 39.8242 180.523 44.1764C178.382 48.5286 175.032 53.177 170.475 58.1217C170.292 60.4915 170.201 62.1207 170.201 63.0094C170.201 64.9918 170.566 66.5641 171.295 67.7262C172.024 68.8883 172.993 69.4694 174.2 69.4694C175.121 69.4694 176.085 69.2208 177.095 68.7237C176.554 67.3514 176.283 65.7998 176.283 64.069C176.283 59.2382 177.958 54.8746 181.308 50.9781C184.657 47.0589 188.371 45.0992 192.45 45.0992C194.569 45.0992 196.267 45.6461 197.543 46.7399C197.833 46.9883 198.09 47.2543 198.314 47.538C198.419 47.2634 198.526 46.986 198.635 46.7057L207.658 45.0309L205.129 52.653C203.432 57.8882 202.407 61.8362 202.055 64.4971V66.5299L201.924 66.6584C201.973 67.6927 202.255 68.55 202.771 69.2301C203.34 69.9821 204.058 70.358 204.924 70.358C206.747 70.358 208.57 68.9453 210.393 66.1198C210.393 62.5423 211.042 58.8281 212.341 54.9772L215.144 46.7057L224.304 45.0309L220.476 56.8571C219.245 60.6624 218.63 63.6702 218.63 65.8805C218.63 67.2249 218.926 68.2959 219.519 69.0934C220.111 69.8909 220.897 70.2897 221.877 70.2897C223.085 70.2897 224.224 69.8453 225.295 68.9567C226.366 68.068 227.574 66.7236 228.918 64.9235C227.71 62.7132 227.106 60.4231 227.106 58.0533C227.106 54.6354 227.961 51.6162 229.67 48.9957C231.379 46.3525 233.304 45.0309 235.446 45.0309C236.927 45.0309 237.668 46.1474 237.668 48.3805C237.668 49.5903 237.55 50.8404 237.315 52.131C237.61 51.7423 237.921 51.358 238.247 50.9781C241.597 47.0589 245.311 45.0992 249.39 45.0992C251.509 45.0992 253.206 45.6461 254.482 46.7399C255.758 47.8336 256.396 49.2692 256.396 51.0465C256.396 55.7633 251.383 59.5914 241.357 62.5309C241.368 62.5803 241.378 62.6295 241.388 62.6783L241.462 62.5992V63.0036C242.443 67.1318 244.789 69.1959 248.501 69.1959C250.005 69.1959 251.44 68.7972 252.808 67.9996C254.175 67.1793 256.237 65.3792 258.994 62.5992V66.5299C256.1 69.3782 253.503 71.486 251.201 72.8531C248.9 74.1976 246.359 74.8698 243.579 74.8698C240.48 74.8698 237.974 73.8785 236.06 71.8961C235.216 71.0121 234.561 70.0035 234.094 68.8703C232.968 68.5953 231.858 68.0203 230.764 67.1451C226.617 72.2949 222.344 74.8698 217.946 74.8698C214.711 74.8698 212.398 73.0924 211.008 69.5377C207.954 73.0924 204.662 74.8698 201.13 74.8698C198.828 74.8698 197.017 74.1178 195.695 72.6139C195.572 72.4713 195.454 72.3238 195.342 72.1713C194.975 72.416 194.615 72.6433 194.262 72.8531C191.96 74.1976 189.42 74.8698 186.64 74.8698C183.541 74.8698 181.034 73.8785 179.12 71.8961C178.951 71.7191 178.79 71.537 178.636 71.35ZM233.302 65.6364C233.249 65.1314 233.223 64.6089 233.223 64.069C233.223 63.6122 233.238 63.1595 233.268 62.7111C232.9 63.3723 232.51 64.0414 232.097 64.7184C232.49 65.0883 232.892 65.3943 233.302 65.6364ZM184.418 62.5309C188.845 61.2328 192.295 59.7615 194.768 58.1169C194.064 60.893 193.713 63.629 193.713 66.3248C193.713 67.231 193.789 68.0714 193.942 68.8459C193.168 69.0793 192.375 69.1959 191.562 69.1959C187.806 69.1959 185.448 67.0828 184.488 62.8564V62.5992L184.442 62.645L184.43 62.5878L184.418 62.5309ZM171.397 53.1656C174.291 49.9528 176.638 46.3525 178.438 42.3649C180.239 38.3772 181.139 34.9479 181.139 32.0768C181.139 31.2337 181.013 30.5615 180.763 30.0602C180.512 29.5361 180.193 29.274 179.806 29.274C178.963 29.274 177.732 31.3704 176.114 35.5631C174.519 39.7558 172.947 45.6233 171.397 53.1656ZM192.895 51.1149C192.895 55.5354 189.978 58.566 184.145 60.2067C184.145 56.538 184.828 53.5644 186.195 51.2858C187.562 48.9843 188.998 47.8336 190.502 47.8336C192.097 47.8336 192.895 48.9274 192.895 51.1149ZM249.834 51.1149C249.834 55.5354 246.917 58.566 241.084 60.2067C241.084 56.538 241.768 53.5644 243.135 51.2858C244.502 48.9843 245.938 47.8336 247.441 47.8336C249.036 47.8336 249.834 48.9274 249.834 51.1149Z" fill="url(#paint6_linear)"/>
<path d="M13.2275 41.7496C15.5745 36.1442 19.3343 30.8691 24.5068 25.9244V25.3776C21.18 25.3776 18.6507 25.8561 16.9189 26.8131C15.1872 27.7474 12.8516 30.0602 9.91211 33.7516C6.97266 37.4202 4.58008 41.6015 2.73438 46.2955C0.911458 50.9895 0 55.6266 0 60.2067C0 64.5133 1.04818 68.0338 3.14453 70.7682C5.26367 73.5026 7.94108 74.8698 11.1768 74.8698C15.3467 74.8698 19.79 72.819 24.5068 68.7174C29.2236 64.5931 33.1543 59.3294 36.2988 52.9264C39.4434 46.5234 41.0156 40.485 41.0156 34.8112C41.0156 31.8717 40.4004 29.5703 39.1699 27.9069C37.9395 26.2207 36.2646 25.3776 34.1455 25.3776C31.0465 25.3776 28.0046 27.2233 25.0195 30.9147C22.0573 34.6061 20.5762 38.4228 20.5762 42.3649C20.5762 44.2334 21.0319 45.7942 21.9434 47.0475C22.8776 48.278 24.0283 48.8932 25.3955 48.8932C26.512 48.8932 27.583 48.4147 28.6084 47.4576C29.6338 46.4778 30.1465 45.4866 30.1465 44.484C30.1465 43.9371 29.8275 43.6295 29.1895 43.5612C27.64 43.3561 26.8652 42.4218 26.8652 40.7584C26.8652 38.4342 27.7083 35.7796 29.3945 32.7946C31.1035 29.8095 32.9492 28.317 34.9316 28.317C36.0026 28.317 36.8571 28.9095 37.4951 30.0944C38.1559 31.2793 38.4863 32.8743 38.4863 34.8795C38.4863 41.6243 36.0368 48.9502 31.1377 56.8571C26.2614 64.7412 21.5674 68.6832 17.0557 68.6832C14.7998 68.6832 13.0111 67.7262 11.6895 65.8121C10.3678 63.8753 9.70703 61.2435 9.70703 57.9166C9.70703 52.7213 10.8805 47.3323 13.2275 41.7496Z" fill="url(#paint7_linear)"/>
<path d="M60.8379 65.3336C60.8379 67.3736 61.4993 68.4421 62.8221 68.5392C62.8196 68.3744 62.8184 68.2173 62.8184 68.068C62.8184 64.3994 63.2399 60.9244 64.083 57.6432C64.9489 54.3619 66.3275 50.6705 68.2188 46.569L76.5586 44.9625C74.804 49.6793 73.6533 53.3935 73.1064 56.1051C76.8434 51.9352 79.8057 49.0527 81.9932 47.4576C84.2035 45.8398 86.1631 45.0309 87.8721 45.0309C89.0342 45.0309 90.0026 45.4752 90.7773 46.3639C91.5521 47.2298 91.9395 48.3235 91.9395 49.6451C91.9395 51.8326 90.9596 55.4329 89 60.4459C87.6556 63.8867 86.9834 66.1198 86.9834 67.1451C86.9834 68.5123 87.5417 69.1959 88.6582 69.1959C90.3216 69.1959 93.0104 66.997 96.7246 62.5992V66.5299C91.4609 72.0898 86.9492 74.8698 83.1895 74.8698C81.6628 74.8698 80.4323 74.3343 79.498 73.2633C78.5638 72.1923 78.0967 70.7568 78.0967 68.9567C78.0967 66.5185 79.0993 62.7929 81.1045 57.7799C82.1755 55.0911 82.7109 53.3821 82.7109 52.653C82.7109 51.9238 82.4261 51.5592 81.8564 51.5592C81.5374 51.5592 81.1159 51.7187 80.5918 52.0377C80.1133 52.3567 79.555 52.8011 78.917 53.3707C78.3473 53.8948 77.7093 54.5328 77.0029 55.2848C76.3877 55.9228 75.7269 56.652 75.0205 57.4723L73.1064 59.694C72.2633 60.7194 71.7393 61.8017 71.5342 62.941C71.3889 63.7641 71.2643 64.5584 71.1602 65.3239V66.5299L70.9931 66.6878C70.9342 67.2322 70.8867 67.7606 70.8506 68.2731C70.7822 69.4808 70.748 71.11 70.748 73.1608L63.1943 74.9381C63.1447 74.3286 63.0999 73.7499 63.0601 73.2021C61.2497 74.3139 59.6089 74.8698 58.1377 74.8698C56.3376 74.8698 54.9476 74.152 53.9678 72.7164C53.0107 71.2809 52.5322 69.3326 52.5322 66.8717C50.0257 69.6289 47.7812 71.6683 45.7988 72.9899C43.8164 74.2887 41.8796 74.9381 39.9883 74.9381C38.2565 74.9381 36.8665 74.2203 35.8184 72.7848C34.7702 71.3492 34.2461 69.401 34.2461 66.9401C34.2461 62.2005 35.8411 55.524 39.0312 46.9108L48.123 45.0992C44.3861 56.014 42.5176 63.0208 42.5176 66.1198C42.5176 68.3073 43.3379 69.401 44.9785 69.401C46.1634 69.401 47.6331 68.444 49.3877 66.5299C51.1423 64.5931 52.236 62.9069 52.6689 61.4713L57.1465 46.9108L66.4434 45.0309C64.3014 51.8896 62.8317 56.7089 62.0342 59.4889C61.2367 62.2688 60.8379 64.2171 60.8379 65.3336Z" fill="url(#paint8_linear)"/>
<path d="M106.601 40.0065C110.793 40.0065 113.106 37.2265 113.539 31.6666C112.195 32.6464 110.839 33.1364 109.472 33.1364C108.264 33.1364 106.749 32.5781 104.926 31.4615C104.561 33.3073 103.388 35.4948 101.405 38.024C102.909 39.3457 104.641 40.0065 106.601 40.0065Z" fill="url(#paint9_linear)"/>
<path fill-rule="evenodd" clip-rule="evenodd" d="M106.327 72.3405C107.014 71.9699 107.677 71.5886 108.315 71.1966C108.506 71.4379 108.708 71.671 108.923 71.8961C110.837 73.8785 113.343 74.8698 116.442 74.8698C119.222 74.8698 121.763 74.1976 124.064 72.8531C126.366 71.486 128.964 69.3782 131.857 66.5299V62.5992C129.1 65.3792 127.038 67.1793 125.671 67.9996C124.304 68.7972 122.868 69.1959 121.364 69.1959C117.513 69.1959 115.132 66.9742 114.221 62.5309C124.247 59.5914 129.26 55.7633 129.26 51.0465C129.26 49.2692 128.622 47.8336 127.346 46.7399C126.07 45.6461 124.372 45.0992 122.253 45.0992C118.174 45.0992 114.46 47.0589 111.11 50.9781C110.258 51.9701 109.513 52.9923 108.878 54.0447C109.41 50.5042 109.904 47.4996 110.36 45.0309C107.398 45.6461 104.721 46.0905 102.328 46.3639L100.209 49.0983C95.082 55.7747 91.0033 60.5599 87.9727 63.4537V66.5299H88.7588C91.8122 63.5905 95.7087 59.1585 100.448 53.234L97.9189 73.8102C91.9033 76.8636 88.8955 80.6233 88.8955 85.0895C88.8955 86.9352 89.431 88.4847 90.502 89.7379C91.5729 91.014 92.8717 91.652 94.3984 91.652C96.8366 91.652 99.2178 89.9886 101.542 86.6617C103.889 83.3349 105.484 78.5612 106.327 72.3405ZM106.995 68.962C106.932 68.9954 106.869 69.0278 106.806 69.0592L106.861 68.6296C106.904 68.7416 106.949 68.8524 106.995 68.962ZM93.168 80.5436C94.2845 79.0397 95.7998 77.8434 97.7139 76.9547L96.9961 82.902C96.5176 86.9124 95.4922 88.9176 93.9199 88.9176C93.2819 88.9176 92.7236 88.553 92.2451 87.8239C91.7666 87.1175 91.5273 86.2516 91.5273 85.2262C91.5273 83.6311 92.0742 82.0703 93.168 80.5436ZM113.947 60.2067C119.781 58.566 122.697 55.5354 122.697 51.1149C122.697 48.9274 121.9 47.8336 120.305 47.8336C118.801 47.8336 117.365 48.9843 115.998 51.2858C114.631 53.5644 113.947 56.538 113.947 60.2067Z" fill="url(#paint10_linear)"/>
<path d="M121.921 76.4718L122.421 76.0306L122.893 78.0343L122.831 79.5819L122.053 81.6693L120.715 83.117L120.7 83.1305C120.318 83.4665 119.974 83.7041 119.576 83.8605C119.18 84.0163 118.762 84.0795 118.253 84.1103C117.76 84.14 117.265 84.1664 116.894 84.1853C116.708 84.1948 116.553 84.2025 116.444 84.2077L116.273 84.2159L116.207 84.2189L114.011 83.6262L113.855 83.2831L113.814 83.108C114.591 82.0067 115.055 81.2097 115.289 80.4905C115.518 79.7846 115.532 79.1332 115.364 78.3154L115.405 78.0033L115.864 77.8953C117.254 78.2418 118.237 78.3285 119.121 78.1263C120.001 77.9248 120.843 77.4225 121.921 76.4718Z" fill="url(#paint11_linear)"/>
<path d="M55 39.3092L66 28.3092" stroke="#016C87" stroke-width="8" stroke-linecap="round" stroke-linejoin="round"/>
<path d="M192 39.3092L203 28.3092" stroke="#016C87" stroke-width="8" stroke-linecap="round" stroke-linejoin="round"/>
<path d="M248 39.3092L259 28.3092" stroke="#D36A08" stroke-width="8" stroke-linecap="round" stroke-linejoin="round"/>
<path d="M150.675 20.3116L144.578 5.99997" stroke="#D36A08" stroke-width="8" stroke-linecap="round" stroke-linejoin="round"/>
<defs>
<linearGradient id="paint0_linear" x1="182.5" y1="46.3092" x2="119.5" y2="48.3092" gradientUnits="userSpaceOnUse">
<stop offset="0.742757" stop-color="#006B87"/>
<stop offset="0.819781" stop-color="#006B87" stop-opacity="0"/>
</linearGradient>
<linearGradient id="paint1_linear" x1="182.5" y1="46.3092" x2="119.5" y2="48.3092" gradientUnits="userSpaceOnUse">
<stop offset="0.742757" stop-color="#006B87"/>
<stop offset="0.819781" stop-color="#006B87" stop-opacity="0"/>
</linearGradient>
<linearGradient id="paint2_linear" x1="182.5" y1="46.3092" x2="119.5" y2="48.3092" gradientUnits="userSpaceOnUse">
<stop offset="0.742757" stop-color="#006B87"/>
<stop offset="0.819781" stop-color="#006B87" stop-opacity="0"/>
</linearGradient>
<linearGradient id="paint3_linear" x1="182.5" y1="46.3092" x2="119.5" y2="48.3092" gradientUnits="userSpaceOnUse">
<stop offset="0.742757" stop-color="#006B87"/>
<stop offset="0.819781" stop-color="#006B87" stop-opacity="0"/>
</linearGradient>
<linearGradient id="paint4_linear" x1="182.5" y1="46.3092" x2="119.5" y2="48.3092" gradientUnits="userSpaceOnUse">
<stop offset="0.742757" stop-color="#006B87"/>
<stop offset="0.819781" stop-color="#006B87" stop-opacity="0"/>
</linearGradient>
<linearGradient id="paint5_linear" x1="182.5" y1="46.3092" x2="119.5" y2="48.3092" gradientUnits="userSpaceOnUse">
<stop offset="0.742757" stop-color="#006B87"/>
<stop offset="0.819781" stop-color="#006B87" stop-opacity="0"/>
</linearGradient>
<linearGradient id="paint6_linear" x1="75" y1="58.3092" x2="136" y2="58.3092" gradientUnits="userSpaceOnUse">
<stop offset="0.962284" stop-color="#D36907"/>
<stop offset="1" stop-color="#D36907" stop-opacity="0"/>
</linearGradient>
<linearGradient id="paint7_linear" x1="75" y1="58.3092" x2="136" y2="58.3092" gradientUnits="userSpaceOnUse">
<stop offset="0.962284" stop-color="#D36907"/>
<stop offset="1" stop-color="#D36907" stop-opacity="0"/>
</linearGradient>
<linearGradient id="paint8_linear" x1="75" y1="58.3092" x2="136" y2="58.3092" gradientUnits="userSpaceOnUse">
<stop offset="0.962284" stop-color="#D36907"/>
<stop offset="1" stop-color="#D36907" stop-opacity="0"/>
</linearGradient>
<linearGradient id="paint9_linear" x1="75" y1="58.3092" x2="136" y2="58.3092" gradientUnits="userSpaceOnUse">
<stop offset="0.962284" stop-color="#D36907"/>
<stop offset="1" stop-color="#D36907" stop-opacity="0"/>
</linearGradient>
<linearGradient id="paint10_linear" x1="75" y1="58.3092" x2="136" y2="58.3092" gradientUnits="userSpaceOnUse">
<stop offset="0.962284" stop-color="#D36907"/>
<stop offset="1" stop-color="#D36907" stop-opacity="0"/>
</linearGradient>
<linearGradient id="paint11_linear" x1="75" y1="58.3092" x2="136" y2="58.3092" gradientUnits="userSpaceOnUse">
<stop offset="0.962284" stop-color="#D36907"/>
<stop offset="1" stop-color="#D36907" stop-opacity="0"/>
</linearGradient>
</defs>
</svg>
